<svg viewBox="0 0 48 48"
xmlns="http://www.w3.org/2000/svg"><g id="Drop,-humid,-humidity,-precipitation,-water-icon"
fill="none" fill-rule="evenodd"><path id="Shape" d="m29 5c3.2676565 0 14 17.3378431 14 24 0
7.7319865-6.2680135 14-14 14-1.8234224 0-3.5999689-.34926-5.2553412-1.0201036-.5118513-.207429-.7586343-.7905208-.5512053-1.302372.2074289-.5118512.7905207-.7586342
 1.3023719-.5512053 1.4177455.5745448 2.9393317.8736809
4.5041746.8736809 6.627417 0 12-5.4532752 12-12-.2220469-6.9705293-10.0601234-20.90802269-12.078-21.985-2.0754163 1.14432849-8.4873932
11.5852723-10.0993402 15.4114484-.2218312.505776-.8116733.7359588-1.3174494.5141277-.505776-.2218312-.7359588-.8116733-.5141277-1.3174493
1.8315771-4.6500302 9.1583104-16.37679882 12.0089173-16.6231268zm-5.0000003 30.999986c.552283 0 1 .4477293 1 1.0000137 0 .5128361-.3911693
1-1 1-1.5370879.0000358-2.7233817 2.0000356-4.9973357 2.0000356-2.2739539 0-3.4293273-2.0000087-5.0026643-2.0000356s-2.6982845 2.0000356-5.00000002
2.0000356c-1.59930911 0-3.16737688-.7840232-4.69990424-2.2857989-.39446186-.3865466-.40087844-1.0196791-.01433182-1.414141.38654661-.3944618
 1.01967907-.4008784 1.41414094-.0143318 1.18876551 1.1649118 2.28743872 1.7142719 3.30009512 1.7142569 1.40216222-.0000208 2.68434742-2.0002022
  5.00000002-2.0000345 2.3156526.000195 3.4960088 2.0000624 4.9973154 2.0000381 1.5013065-.0000244 2.5498602-1.9998431 5.0026846-2.0000381zm-18.30009514-3.7142224c1.18875407
   1.1649006 2.28742563 1.7142361 3.30009512 1.7142361.55228507 0 1 .4477156 1 1 0 .552285-.44771493 1-1 1-1.59939166
   0-3.16738677-.7839973-4.69990424-2.2857633-.39446186-.3865466-.40087844-1.0196791-.01433182-1.414141.38654661-.3944618
   1.01967907-.4008784 1.41414094-.0143318zm18.30009544-.2857637c2.4081466-.0000472 3.5702443 2 5.0097308 2.0000474 1.0064906.0097944
   2.1005282-.5372244 3.286985-1.7109561.3926241-.3884132 1.0257799-.3849995 1.414193.0076246.3884132.3926241.3849995 1.0257799-.0076246
   1.414193-1.5348148 1.5183535-3.1053795 2.2890439-4.713015 2.2890439-2.3144458 0-3.4046357-1.9999528-4.9902692-1.9999528s-2.706099
   2.0001811-4.9973255 2-3.4225294-1.9999094-5.0026745-2c-.5522847 0-1-.4477152-1-1
0-.5522846.4477153-1 1-1 2.3937549.0001811 3.531381 1.9999095 4.9973255 2 1.4659446.0000906 2.5945279-1.9999527
5.0026745-2zm-10.0000003-4.0000002c.552285 0 1 .4477156 1 1 0 .5128361-.3968671 1-1 1-1.583846 0-2.7182385 1.999953-5.00000002
2-1.59939166 0-3.16738677-.7839973-4.69990424-2.2857633-.39446186-.3865466-.40087844-1.0196791-.01433182-1.414141.38654661-.3944618
1.01967907-.4008784 1.41414094-.0143318 1.18875407 1.1649006 2.28742563 1.7142361 3.30009512 1.7142361 1.62804702 0 2.49811312-1.9999462
5.00000002-2zm10.0000002.0000002c2.3181813 0 3.5175942 1.9932724 5.0097309 2.0000474 1.0064906.0097944 2.1005282-.5372244 3.286985-1.7109561.3926241-.3884132
1.0257799-.3849995 1.414193.0076246.3884132.3926241.3849995 1.0257799-.0076246 1.414193-1.5348148 1.5183535-3.106228 2.2890439-4.713015 2.2890439-2.2671532
0-3.4052078-1.9932252-4.9902693-1.9999528s-2.6769797
1.9999528-4.9973254 2c-.5522828.0014736-1.0011939-.4450427-1.0027506-.9973254-.0013974-.5522828.4451189-1.0011939.9974016-1.0026746 1.4444718-.0067276
 2.6844931-2 5.0026744-2zm-.0000002-4.0000002c.552285 0 1 .4477156 1 1 0 .5128361-.4221739 1.0000269-1 1-1.6597396-.0000773-2.6566052 1.9938441-4.9973357
 2.0000356s-3.4067726-2.0000356-5.0026643-2.0000356-2.6531918 2-5.00000002 2.0000356c-1.59938429 0-3.16737688-.7840232-4.69990424-2.2857989-.39446186-.3865466-.40087844-1.0196791-.01433182-1.414141.38654661-.3944618 1.01967907-.4008784
 1.41414094-.0143318 1.18876551 1.1649118 2.28743872 1.7142569 3.30009512 1.7142569 1.45065932-.0067482 2.63946702-2.0000208 5.00000002-2.0000208 2.3605329 0 3.5052107 2.0039994 4.9973154
  2.0000244 1.4921046-.0039751 2.6072607-2.0000244 5.0026846-2.0000244z" fill="rgb(0,0,0)" fill-rule="nonzero"></path></g></svg>