<?xml version="1.0" encoding="UTF-8"?>
<svg xmlns="http://www.w3.org/2000/svg" xmlns:xlink="http://www.w3.org/1999/xlink" width="100px" height="100px" viewBox="0 0 100 100" version="1.1">
<g id="surface1">
<path style=" stroke:none;fill-rule:nonzero;fill:rgb(0%,0%,0%);fill-opacity:1;" d="M 35.5 3.351562 C 33.800781 4.25 32.199219 5.601562 31.25 6.949219 L 29.75 9.101562 L 29.601562 37.351562 L 29.5 65.648438 L 27.449219 67.851562 C 24.101562 71.5 22.75 75 22.75 80 C 22.75 83.601562 22.949219 84.699219 24.148438 87.25 C 25.949219 91.148438 29.351562 94.550781 33.199219 96.351562 C 35.800781 97.550781 36.898438 97.75 40.5 97.75 C 44.101562 97.75 45.199219 97.550781 47.851562 96.300781 C 51.648438 94.550781 55.050781 91.101562 56.898438 87.101562 C 58 84.75 58.199219 83.550781 58.25 80 C 58.25 76.398438 58.050781 75.300781 56.898438 72.898438 C 56.199219 71.351562 54.699219 69.101562 53.550781 67.851562 L 51.550781 65.648438 L 51.398438 37.148438 L 51.25 8.648438 L 49.851562 6.648438 C 48 3.949219 45.101562 2.449219 41.300781 2.148438 C 38.648438 1.949219 37.898438 2.101562 35.5 3.351562 Z M 44.898438 7.351562 C 47.550781 9.300781 47.5 8.699219 47.5 39.101562 L 47.5 67.449219 L 49.550781 69.351562 C 52.851562 72.398438 54.199219 75.550781 54.199219 80 C 54.199219 83.101562 54 84.199219 52.898438 86.300781 C 50.449219 90.949219 45.550781 94 40.5 94 C 33 94 26.5 87.5 26.5 80 C 26.5 76.351562 27.898438 73.101562 30.800781 70.101562 L 33.5 67.300781 L 33.5 38.851562 C 33.5 7.550781 33.398438 8.449219 36.601562 6.800781 C 38.800781 5.699219 43.050781 5.949219 44.898438 7.351562 Z M 44.898438 7.351562 "/>
<path style=" stroke:none;fill-rule:nonzero;fill:rgb(0%,0%,0%);fill-opacity:1;" d="M 39.101562 31.601562 C 38.648438 32.050781 38.5 37.050781 38.5 51.050781 L 38.5 69.851562 L 36.148438 71.101562 C 34.75 71.800781 33.148438 73.199219 32.25 74.449219 C 30.949219 76.300781 30.75 77 30.75 79.898438 C 30.75 82.550781 31 83.648438 31.949219 85.148438 C 35.300781 90.601562 43 91.5 47.5 87 C 51.75 82.75 51.199219 75.449219 46.351562 71.949219 C 45.25 71.148438 43.949219 70.5 43.398438 70.5 C 42.550781 70.5 42.5 69.648438 42.5 51.351562 C 42.5 31.601562 42.449219 31 40.5 31 C 40.050781 31 39.449219 31.25 39.101562 31.601562 Z M 44.699219 75.949219 C 46 77.300781 46.25 77.898438 46.25 80 C 46.25 82.101562 46 82.699219 44.75 84 C 39.800781 88.949219 31.800781 82.949219 35.351562 76.949219 C 37.300781 73.648438 41.898438 73.199219 44.699219 75.949219 Z M 44.699219 75.949219 "/>
<path style=" stroke:none;fill-rule:nonzero;fill:rgb(0%,0%,0%);fill-opacity:1;" d="M 56.148438 8.351562 C 55.800781 8.449219 55.5 9.25 55.5 10.050781 C 55.5 12 55.949219 12.050781 67.199219 11.898438 C 75.550781 11.75 76.699219 11.648438 77.199219 10.851562 C 77.601562 10.25 77.601562 9.75 77.199219 9.101562 C 76.699219 8.351562 75.550781 8.25 66.699219 8.148438 C 61.25 8.101562 56.449219 8.199219 56.148438 8.351562 Z M 56.148438 8.351562 "/>
<path style=" stroke:none;fill-rule:nonzero;fill:rgb(0%,0%,0%);fill-opacity:1;" d="M 56.148438 18.300781 C 55.800781 18.449219 55.5 19.25 55.5 20.050781 C 55.5 21.851562 56.300781 22.101562 62.199219 21.898438 C 65.800781 21.800781 66.75 21.601562 67.199219 20.851562 C 67.601562 20.25 67.601562 19.75 67.199219 19.101562 C 66.75 18.398438 65.800781 18.25 61.699219 18.148438 C 59 18.101562 56.449219 18.199219 56.148438 18.300781 Z M 56.148438 18.300781 "/>
<path style=" stroke:none;fill-rule:nonzero;fill:rgb(0%,0%,0%);fill-opacity:1;" d="M 56.148438 28.351562 C 55.800781 28.449219 55.5 29.25 55.5 30.050781 C 55.5 32 55.949219 32.050781 67.199219 31.898438 C 75.550781 31.75 76.699219 31.648438 77.199219 30.851562 C 77.601562 30.25 77.601562 29.75 77.199219 29.101562 C 76.699219 28.351562 75.550781 28.25 66.699219 28.148438 C 61.25 28.101562 56.449219 28.199219 56.148438 28.351562 Z M 56.148438 28.351562 "/>
<path style=" stroke:none;fill-rule:nonzero;fill:rgb(0%,0%,0%);fill-opacity:1;" d="M 56.148438 38.300781 C 55.800781 38.449219 55.5 39.25 55.5 40.050781 C 55.5 41.851562 56.300781 42.101562 62.199219 41.898438 C 65.800781 41.800781 66.75 41.601562 67.199219 40.851562 C 67.601562 40.25 67.601562 39.75 67.199219 39.101562 C 66.75 38.398438 65.800781 38.25 61.699219 38.148438 C 59 38.101562 56.449219 38.199219 56.148438 38.300781 Z M 56.148438 38.300781 "/>
<path style=" stroke:none;fill-rule:nonzero;fill:rgb(0%,0%,0%);fill-opacity:1;" d="M 56.148438 48.351562 C 55.800781 48.449219 55.5 49.25 55.5 50.050781 C 55.5 52 55.949219 52.050781 67.199219 51.898438 C 75.550781 51.75 76.699219 51.648438 77.199219 50.851562 C 77.601562 50.25 77.601562 49.75 77.199219 49.101562 C 76.699219 48.351562 75.550781 48.25 66.699219 48.148438 C 61.25 48.101562 56.449219 48.199219 56.148438 48.351562 Z M 56.148438 48.351562 "/>
<path style=" stroke:none;fill-rule:nonzero;fill:rgb(0%,0%,0%);fill-opacity:1;" d="M 56.148438 58.300781 C 55.800781 58.449219 55.5 59.25 55.5 60.050781 C 55.5 61.851562 56.300781 62.101562 62.199219 61.898438 C 65.800781 61.800781 66.75 61.601562 67.199219 60.851562 C 67.601562 60.25 67.601562 59.75 67.199219 59.101562 C 66.75 58.398438 65.800781 58.25 61.699219 58.148438 C 59 58.101562 56.449219 58.199219 56.148438 58.300781 Z M 56.148438 58.300781 "/>
</g>
</svg>
