<!-- icon666.com - MILLIONS vector ICONS FREE --><svg version="1.1" id="Capa_1" xmlns="http://www.w3.org/2000/svg" xmlns:xlink="http://www.w3.org/1999/xlink" x="0px" y="0px" viewBox="0 0 409.6 409.6" style="enable-background:new 0 0 409.6 409.6;" xml:space="preserve"><g><g><path d="M327.552,45.867c-26.066,0-50.831,12.575-66.243,33.628c-1.669,2.284-1.172,5.489,1.106,7.158 c2.289,1.674,5.489,1.172,7.158-1.106c13.491-18.437,35.169-29.44,57.979-29.44c39.593,0,71.808,32.215,71.808,71.803 c0,39.593-32.215,71.808-71.808,71.808H5.12c-2.826,0-5.12,2.294-5.12,5.12s2.294,5.12,5.12,5.12h322.432 c45.24,0,82.048-36.808,82.048-82.048S372.792,45.867,327.552,45.867z"></path></g></g><g><g><path d="M178.724,81.375c-14.787,0-28.836,7.132-37.576,19.077c-1.669,2.284-1.172,5.489,1.106,7.158 c2.289,1.669,5.489,1.172,7.158-1.106c6.82-9.318,17.777-14.884,29.312-14.884c20.014,0,36.296,16.282,36.296,36.296 c0,20.014-16.282,36.301-36.296,36.301H5.12c-2.826,0-5.12,2.294-5.12,5.12s2.294,5.115,5.12,5.115h173.604 c25.661,0,46.536-20.879,46.536-46.541S204.38,81.375,178.724,81.375z"></path></g></g><g><g><path d="M258.621,232.538H5.12c-2.826,0-5.12,2.294-5.12,5.12s2.294,5.12,5.12,5.12h253.501c30.525,0,55.357,24.837,55.357,55.357 c0,30.52-24.837,55.357-55.357,55.357c-17.587,0-34.299-8.484-44.703-22.697c-1.669-2.278-4.869-2.775-7.158-1.106 c-2.278,1.674-2.775,4.874-1.106,7.158c12.324,16.835,32.128,26.885,52.966,26.885c36.173,0,65.597-29.43,65.597-65.597 C324.219,261.967,294.789,232.538,258.621,232.538z"></path></g></g></svg>